<svg width="32" height="296" viewBox="0 0 32 296" fill="none" xmlns="http://www.w3.org/2000/svg">
<rect width="32" height="32" rx="16" fill="white"/>
<rect x="0.5" y="0.5" width="31" height="31" rx="15.5" stroke="#303030" stroke-opacity="0.1"/>
<path d="M20.5 13.5L19.795 14.205L21.085 15.5H16.5V10.915L17.795 12.205L18.5 11.5L16 9L13.5 11.5L14.205 12.205L15.5 10.915V15.5H10.915L12.205 14.205L11.5 13.5L9 16L11.5 18.5L12.205 17.795L10.915 16.5H15.5V21.085L14.205 19.795L13.5 20.5L16 23L18.5 20.5L17.795 19.795L16.5 21.085V16.5H21.085L19.795 17.795L20.5 18.5L23 16L20.5 13.5Z" fill="#3D3D3D"/>
<rect y="44" width="32" height="32" rx="16" fill="white"/>
<rect x="0.5" y="44.5" width="31" height="31" rx="15.5" stroke="#303030" stroke-opacity="0.1"/>
<path d="M16.6667 67V63.5278H20V61.4444H16.6667V58.6667H22V56.5833H16.6667V53H15.3333V56.5833H10V58.6667H15.3333V61.4444H12V63.5278H15.3333V67H16.6667Z" fill="#3D3D3D"/>
<rect y="88" width="32" height="32" rx="16" fill="white"/>
<rect x="0.5" y="88.5" width="31" height="31" rx="15.5" stroke="#303030" stroke-opacity="0.1"/>
<path d="M23 103.333H19.5278V100H17.4444V103.333H14.6667V98H12.5833V103.333H9V104.667H12.5833V110H14.6667V104.667H17.4444V108H19.5278V104.667H23V103.333Z" fill="#3D3D3D"/>
<rect y="132" width="32" height="32" rx="16" fill="white"/>
<rect x="0.5" y="132.5" width="31" height="31" rx="15.5" stroke="#303030" stroke-opacity="0.1"/>
<g clip-path="url(#clip0_1643_1267)">
<path d="M19.4091 150.045H20.7727V144.591C20.7727 143.841 20.1591 143.227 19.4091 143.227H13.9545V144.591H19.4091V150.045ZM12.5909 151.409V140.5H11.2273V143.227H8.5V144.591H11.2273V151.409C11.2273 152.159 11.8409 152.773 12.5909 152.773H19.4091V155.5H20.7727V152.773H23.5V151.409H12.5909Z" fill="black"/>
</g>
<rect y="176" width="32" height="32" rx="16" fill="white"/>
<rect x="0.5" y="176.5" width="31" height="31" rx="15.5" stroke="#303030" stroke-opacity="0.1"/>
<g clip-path="url(#clip1_1643_1267)">
<path d="M21.9353 186.211C22.0008 186.353 22.1113 186.465 22.2573 186.529L22.8648 186.793C22.9051 186.81 22.9394 186.839 22.9635 186.876C22.9876 186.913 23.0004 186.956 23.0004 187C23.0004 187.044 22.9876 187.087 22.9635 187.124C22.9394 187.161 22.9051 187.19 22.8648 187.207L22.2623 187.471C22.1184 187.532 22.0033 187.645 21.9408 187.789L21.4638 188.872C21.3788 189.043 21.1223 189.043 21.0368 188.872L20.5598 187.789C20.4957 187.646 20.3811 187.533 20.2383 187.471L19.6358 187.207C19.5955 187.19 19.5611 187.161 19.537 187.124C19.5129 187.087 19.5001 187.044 19.5001 187C19.5001 186.956 19.5129 186.913 19.537 186.876C19.5611 186.839 19.5955 186.81 19.6358 186.793L20.2383 186.529C20.3821 186.468 20.4972 186.355 20.5598 186.211L21.0368 185.128C21.1218 184.958 21.3783 184.958 21.4638 185.128L21.9353 186.211ZM15.9919 186.582C16.0387 186.681 16.1202 186.759 16.2208 186.802L16.6528 186.981C16.7828 187.04 16.7828 187.21 16.6528 187.269L16.2208 187.448C16.1191 187.489 16.037 187.568 15.9919 187.668L15.6539 188.412C15.5914 188.529 15.4089 188.529 15.3469 188.412L15.0089 187.668C14.9622 187.569 14.8806 187.491 14.7799 187.448L14.3479 187.269C14.3192 187.257 14.2946 187.237 14.2772 187.212C14.2599 187.186 14.2506 187.156 14.2506 187.125C14.2506 187.094 14.2599 187.064 14.2772 187.038C14.2946 187.013 14.3192 186.993 14.3479 186.981L14.7799 186.802C14.8816 186.761 14.9637 186.682 15.0089 186.582L15.3469 185.837C15.4094 185.721 15.5919 185.721 15.6539 185.837L15.9919 186.582ZM9.16895 197.814L10.1789 198.826L18.8373 190.167L17.7503 189.25L9.16895 197.814ZM20.9753 192.149C20.8722 192.099 20.7905 192.014 20.7453 191.909L20.4028 191.098C20.3388 190.968 20.1568 190.968 20.0978 191.098L19.7553 191.91C19.7101 192.014 19.6284 192.1 19.5253 192.149L19.0968 192.345C18.9683 192.41 18.9683 192.595 19.0968 192.655L19.5248 192.851C19.6279 192.901 19.7096 192.986 19.7548 193.091L20.0978 193.902C20.1618 194.033 20.3438 194.033 20.4028 193.902L20.7453 193.091C20.7904 192.986 20.8721 192.901 20.9753 192.851L21.4038 192.655C21.5323 192.59 21.5323 192.405 21.4038 192.345L20.9753 192.149Z" fill="#3D3D3D"/>
</g>
<rect y="220" width="32" height="32" rx="16" fill="white"/>
<rect x="0.5" y="220.5" width="31" height="31" rx="15.5" stroke="#303030" stroke-opacity="0.1"/>
<path d="M11.2857 241.444C11.2857 241.857 11.4513 242.253 11.746 242.544C12.0407 242.836 12.4404 243 12.8571 243H19.1429C19.5596 243 19.9593 242.836 20.254 242.544C20.5487 242.253 20.7143 241.857 20.7143 241.444V232.111H11.2857V241.444ZM12.8571 233.667H19.1429V241.444H12.8571V233.667ZM18.75 229.778L17.9643 229H14.0357L13.25 229.778H10.5V231.333H21.5V229.778H18.75Z" fill="#3D3D3D"/>
<rect y="264" width="32" height="32" rx="16" fill="white"/>
<rect x="0.5" y="264.5" width="31" height="31" rx="15.5" stroke="#303030" stroke-opacity="0.1"/>
<path d="M11.125 281.046C11.125 279.703 11.6694 278.482 12.555 277.595L11.4013 276.439C10.1836 277.662 9.49989 279.319 9.5 281.046C9.5 284.367 11.9781 287.101 15.1875 287.5V285.856C12.8881 285.465 11.125 283.463 11.125 281.046ZM22.5 281.046C22.5 277.448 19.5912 274.535 16 274.535C15.9513 274.535 15.9025 274.543 15.8537 274.543L16.7394 273.656L15.5938 272.5L12.75 275.349L15.5938 278.197L16.7394 277.05L15.8619 276.171C15.9106 276.171 15.9594 276.163 16 276.163C18.6894 276.163 20.875 278.352 20.875 281.046C20.875 283.463 19.1119 285.465 16.8125 285.856V287.5C20.0219 287.101 22.5 284.367 22.5 281.046Z" fill="#3D3D3D"/>
<defs>
<clipPath id="clip0_1643_1267">
<rect width="15" height="15" fill="white" transform="translate(8.5 140.5)"/>
</clipPath>
<clipPath id="clip1_1643_1267">
<rect width="14" height="14" fill="white" transform="translate(9 185)"/>
</clipPath>
</defs>
</svg>