<svg width="24" height="22" viewBox="0 0 24 22" fill="none" xmlns="http://www.w3.org/2000/svg">
<path d="M11.4311 2.98245L12 3.6447L12.5689 2.98245C13.7396 1.61967 15.5385 0.75 17.4 0.75C20.6833 0.75 23.25 3.30512 23.25 6.59401C23.25 8.60716 22.348 10.4982 20.607 12.6262C18.8578 14.7643 16.3412 17.0488 13.2364 19.8616L13.2354 19.8626L12 20.9862L10.7646 19.8626L10.7636 19.8616C7.6588 17.0488 5.14218 14.7643 3.39299 12.6262C1.65201 10.4982 0.75 8.60716 0.75 6.59401C0.75 3.30512 3.31668 0.75 6.6 0.75C8.46152 0.75 10.2604 1.61967 11.4311 2.98245Z" fill="white" stroke="#3D3D3D" stroke-width="1.5"/>
</svg>
